<?xml version="1.0" encoding="iso-8859-1"?>
<!-- Generator: Adobe Illustrator 24.1.2, SVG Export Plug-In . SVG Version: 6.00 Build 0)  -->
<svg version="1.1" xmlns="http://www.w3.org/2000/svg" xmlns:xlink="http://www.w3.org/1999/xlink" x="0px" y="0px"
	 viewBox="0 0 48 48" style="enable-background:new 0 0 48 48;" xml:space="preserve">
<g id="Layer_10" style="display:none;">
	<g style="display:inline;opacity:0.05;">
		<g>
			<circle style="fill:#FFFFFF;" cx="24" cy="24" r="19.5"/>
			<path d="M24,5c10.477,0,19,8.523,19,19s-8.523,19-19,19S5,34.477,5,24S13.523,5,24,5 M24,4C12.954,4,4,12.954,4,24
				s8.954,20,20,20s20-8.954,20-20S35.046,4,24,4L24,4z"/>
		</g>
		<g>
			<rect x="6.5" y="6.5" style="fill:#FFFFFF;" width="35" height="35"/>
			<path d="M41,7v34H7V7H41 M42,6H6v36h36V6L42,6z"/>
		</g>
	</g>
</g>
<g id="filled">
</g>
<g id="outlined">
</g>
<g id="rounded">
</g>
<g id="two_x5F_tone">
</g>
<g id="sharp">
</g>
<g id="win10">
</g>
<g id="ios_x5F_out">
</g>
<g id="ios_x5F_filled">
</g>
<g id="color">
</g>
<g id="fluent">
	<linearGradient id="SVGID_1_" gradientUnits="userSpaceOnUse" x1="9.703" y1="26.1194" x2="16.5854" y2="37.59">
		<stop  offset="0" style="stop-color:#1784D8"/>
		<stop  offset="1" style="stop-color:#0864C5"/>
	</linearGradient>
	<path style="fill:url(#SVGID_1_);" d="M20,25.026L5.011,25l0.001,11.002c0,0.999,0.737,1.844,1.726,1.981L20,39.818V25.026z"/>
	<linearGradient id="SVGID_2_" gradientUnits="userSpaceOnUse" x1="24.6037" y1="27.1299" x2="44.5449" y2="40.8947">
		<stop  offset="0" style="stop-color:#31ABEC"/>
		<stop  offset="1" style="stop-color:#1582D5"/>
	</linearGradient>
	<path style="fill:url(#SVGID_2_);" d="M22,25.03v15.065l18.722,2.59c1.202,0.166,2.274-0.767,2.274-1.981L43,25.066L22,25.03z"/>
	<linearGradient id="SVGID_3_" gradientUnits="userSpaceOnUse" x1="8.1415" y1="11.699" x2="25.7885" y2="27.5814">
		<stop  offset="0" style="stop-color:#31ABEC"/>
		<stop  offset="1" style="stop-color:#1582D5"/>
	</linearGradient>
	<path style="fill:url(#SVGID_3_);" d="M20,8.256l-13.278,1.88c-0.987,0.14-1.721,0.985-1.72,1.982L5.014,23H20V8.256z"/>
	<linearGradient id="SVGID_4_" gradientUnits="userSpaceOnUse" x1="25.9134" y1="10.147" x2="56.0311" y2="30.6176">
		<stop  offset="0" style="stop-color:#54DAFF"/>
		<stop  offset="1" style="stop-color:#25A2E5"/>
	</linearGradient>
	<path style="fill:url(#SVGID_4_);" d="M22,7.973V23h20.995V7.303c0-1.216-1.076-2.151-2.28-1.98L22,7.973z"/>
</g>
<g id="doodle">
</g>
</svg>